<svg version="1.1" id="Layer_1" xmlns="http://www.w3.org/2000/svg" xmlns:xlink="http://www.w3.org/1999/xlink" x="0px" y="0px"
	 width="100%" viewBox="0 0 512 512" enable-background="new 0 0 512 512" xml:space="preserve">
<path fill="#FFFFFF" opacity="1.000000" stroke="none" 
	d="
M513.000000,39.000000 
	C513.000000,196.947495 513.000000,354.894989 513.000000,512.921265 
	C342.442566,512.921265 171.885117,512.921265 1.000000,512.921265 
	C1.000000,410.643585 1.000000,308.286804 1.349045,205.549835 
	C13.344654,226.173264 24.991219,247.176895 36.582798,268.081360 
	C78.818138,244.944412 120.646980,222.030151 163.057053,198.797501 
	C188.786224,243.915100 214.469879,288.952881 240.310028,334.265076 
	C247.313797,327.925537 253.957001,321.790924 260.731964,315.805511 
	C274.249573,303.863190 287.852600,292.017609 301.393646,280.101807 
	C307.558533,274.676880 313.629517,269.145264 319.796356,263.722626 
	C333.216949,251.921661 346.680481,240.169556 360.108521,228.377045 
	C366.029175,223.177521 371.871185,217.888184 377.810120,212.709763 
	C390.402924,201.729507 403.068298,190.832306 415.641510,179.829773 
	C424.756409,171.853577 433.770966,163.762741 443.845337,154.822189 
	C455.264648,166.285980 466.451660,177.516556 477.661407,188.769958 
	C478.087524,187.206238 478.605286,185.543930 478.991608,183.851624 
	C482.752014,167.378860 486.444977,150.890579 490.246216,134.427292 
	C495.457428,111.857155 500.698059,89.293541 506.024658,66.750427 
	C508.217682,57.469078 510.667175,48.248322 513.000000,39.000000 
M491.000000,407.500000 
	C491.000000,354.855896 491.035156,302.211700 490.880981,249.568054 
	C490.874298,247.281952 489.700348,244.440323 488.101105,242.805313 
	C473.891479,228.277893 459.398529,214.027908 445.156921,199.531296 
	C442.481781,196.808289 440.862244,196.404816 437.971771,199.332397 
	C433.968628,203.386887 429.240753,206.714508 425.000702,210.549637 
	C420.866455,214.289047 417.730469,217.873154 417.760406,224.648636 
	C418.128174,307.944305 418.000000,391.242157 418.000000,474.539459 
	C418.000000,476.299805 418.000000,478.060181 418.000000,479.704590 
	C442.670349,479.704590 466.735474,479.704590 491.000000,479.704590 
	C491.000000,455.773163 491.000000,432.136597 491.000000,407.500000 
M323.000000,308.601929 
	C323.000000,365.681641 323.000000,422.761353 323.000000,479.683289 
	C348.036865,479.683289 372.440430,479.683289 396.734070,479.683289 
	C396.734070,398.646271 396.734070,317.926270 396.734070,236.200668 
	C394.351746,237.998978 392.505096,239.214386 390.863251,240.662003 
	C381.870483,248.590942 372.990295,256.648346 363.952820,264.525513 
	C351.980255,274.960999 339.998383,285.390778 327.806244,295.566315 
	C323.815826,298.896698 322.216553,302.665253 323.000000,308.601929 
M176.965317,284.616791 
	C169.242294,270.523346 161.495239,256.442932 153.820953,242.322983 
	C152.609055,240.093201 151.238708,239.216644 148.850922,240.602005 
	C145.797012,242.373825 142.841171,244.467972 139.565872,245.664444 
	C135.835068,247.027328 134.896881,249.116364 134.903687,252.983368 
	C135.034027,326.965057 135.000000,400.947052 135.000000,474.928986 
	C135.000000,476.533264 135.000000,478.137543 135.000000,479.738403 
	C159.595703,479.738403 183.663605,479.738403 207.676590,479.738403 
	C207.822098,479.175140 207.969894,478.869995 207.970016,478.564758 
	C207.986969,433.742554 208.009033,388.920288 207.938843,344.098206 
	C207.936188,342.407227 207.328568,340.557526 206.507675,339.051758 
	C196.737778,321.130981 186.873779,303.261444 176.965317,284.616791 
M41.000000,401.500000 
	C41.000000,427.581421 41.000000,453.662872 41.000000,479.748657 
	C65.593651,479.748657 89.652245,479.748657 113.649704,479.748657 
	C113.649704,406.380493 113.649704,333.264160 113.649704,259.447845 
	C112.233185,260.553558 111.446625,261.361176 110.500946,261.877289 
	C88.655380,273.800415 66.842636,285.786011 44.875233,297.480927 
	C41.812107,299.111633 40.912807,300.773071 40.925529,304.076294 
	C41.049343,336.217163 41.000000,368.358673 41.000000,401.500000 
M271.490112,345.005402 
	C265.475372,350.347839 259.520966,355.760315 253.428619,361.012726 
	C247.497971,366.125732 241.417343,371.064484 235.419128,376.099457 
	C231.122665,379.705902 228.681427,383.605286 228.789856,389.950500 
	C229.273621,418.258240 229.000000,446.578949 229.000000,474.894958 
	C229.000000,476.502075 229.000000,478.109222 229.000000,479.760498 
	C253.563721,479.760498 277.625244,479.760498 301.631287,479.760498 
	C301.631287,426.389618 301.631287,373.259064 301.631287,318.691986 
	C291.145264,327.825012 281.572632,336.162506 271.490112,345.005402 
z"/>
<path fill="#FFFFFF" opacity="1.000000" stroke="none" 
	d="
M1.000000,201.000000 
	C1.000000,134.372482 1.000000,67.744957 1.000000,1.058717 
	C171.666656,1.058717 342.333313,1.058717 513.000000,1.058717 
	C513.000000,11.741991 513.000000,22.402336 512.582703,33.531479 
	C505.709473,35.344688 499.222076,36.554966 492.803436,38.058540 
	C473.225067,42.644810 453.691315,47.421848 434.106506,51.979958 
	C408.779541,57.874477 383.420044,63.629295 357.027710,69.684448 
	C368.196686,80.799606 378.826416,91.378105 389.415680,101.916321 
	C346.053253,140.133850 303.208435,177.895233 259.954620,216.017044 
	C256.338989,209.741623 252.624756,203.398865 249.010162,196.999847 
	C241.501694,183.707397 234.119370,170.343277 226.550919,157.085266 
	C216.110184,138.795776 205.277725,120.722664 195.217957,102.227852 
	C192.635925,97.480812 190.682007,97.377228 186.688049,99.688705 
	C180.440323,103.304512 174.003632,106.593445 167.653091,110.032135 
	C155.213638,116.767860 142.737366,123.436935 130.350418,130.268005 
	C108.251213,142.455109 86.213898,154.754410 64.136765,166.981628 
	C54.014992,172.587479 43.897491,178.202988 33.710197,183.688080 
	C22.848558,189.536285 11.906792,195.235657 1.000000,201.000000 
z"/>
<path fill="#9BA4B5" opacity="1.000000" stroke="none" 
	d="
M1.000000,201.399994 
	C11.906792,195.235657 22.848558,189.536285 33.710197,183.688080 
	C43.897491,178.202988 54.014992,172.587479 64.136765,166.981628 
	C86.213898,154.754410 108.251213,142.455109 130.350418,130.268005 
	C142.737366,123.436935 155.213638,116.767860 167.653091,110.032135 
	C174.003632,106.593445 180.440323,103.304512 186.688049,99.688705 
	C190.682007,97.377228 192.635925,97.480812 195.217957,102.227852 
	C205.277725,120.722664 216.110184,138.795776 226.550919,157.085266 
	C234.119370,170.343277 241.501694,183.707397 249.010162,196.999847 
	C252.624756,203.398865 256.338989,209.741623 259.954620,216.017044 
	C303.208435,177.895233 346.053253,140.133850 389.415680,101.916321 
	C378.826416,91.378105 368.196686,80.799606 357.027710,69.684448 
	C383.420044,63.629295 408.779541,57.874477 434.106506,51.979958 
	C453.691315,47.421848 473.225067,42.644810 492.803436,38.058540 
	C499.222076,36.554966 505.709473,35.344688 512.582703,34.000137 
	C513.000000,35.388889 513.000000,36.777779 513.000000,38.583336 
	C510.667175,48.248322 508.217682,57.469078 506.024658,66.750427 
	C500.698059,89.293541 495.457428,111.857155 490.246216,134.427292 
	C486.444977,150.890579 482.752014,167.378860 478.991608,183.851624 
	C478.605286,185.543930 478.087524,187.206238 477.661407,188.769958 
	C466.451660,177.516556 455.264648,166.285980 443.845337,154.822189 
	C433.770966,163.762741 424.756409,171.853577 415.641510,179.829773 
	C403.068298,190.832306 390.402924,201.729507 377.810120,212.709763 
	C371.871185,217.888184 366.029175,223.177521 360.108521,228.377045 
	C346.680481,240.169556 333.216949,251.921661 319.796356,263.722626 
	C313.629517,269.145264 307.558533,274.676880 301.393646,280.101807 
	C287.852600,292.017609 274.249573,303.863190 260.731964,315.805511 
	C253.957001,321.790924 247.313797,327.925537 240.310028,334.265076 
	C214.469879,288.952881 188.786224,243.915100 163.057053,198.797501 
	C120.646980,222.030151 78.818138,244.944412 36.582798,268.081360 
	C24.991219,247.176895 13.344654,226.173264 1.349045,205.084824 
	C1.000000,203.933334 1.000000,202.866653 1.000000,201.399994 
z"/>
<path fill="#9BA4B5" opacity="1.000000" stroke="none" 
	d="
M491.000000,408.000000 
	C491.000000,432.136597 491.000000,455.773163 491.000000,479.704590 
	C466.735474,479.704590 442.670349,479.704590 418.000000,479.704590 
	C418.000000,478.060181 418.000000,476.299805 418.000000,474.539459 
	C418.000000,391.242157 418.128174,307.944305 417.760406,224.648636 
	C417.730469,217.873154 420.866455,214.289047 425.000702,210.549637 
	C429.240753,206.714508 433.968628,203.386887 437.971771,199.332397 
	C440.862244,196.404816 442.481781,196.808289 445.156921,199.531296 
	C459.398529,214.027908 473.891479,228.277893 488.101105,242.805313 
	C489.700348,244.440323 490.874298,247.281952 490.880981,249.568054 
	C491.035156,302.211700 491.000000,354.855896 491.000000,408.000000 
z"/>
<path fill="#9BA4B5" opacity="1.000000" stroke="none" 
	d="
M323.000000,308.121704 
	C322.216553,302.665253 323.815826,298.896698 327.806244,295.566315 
	C339.998383,285.390778 351.980255,274.960999 363.952820,264.525513 
	C372.990295,256.648346 381.870483,248.590942 390.863251,240.662003 
	C392.505096,239.214386 394.351746,237.998978 396.734070,236.200668 
	C396.734070,317.926270 396.734070,398.646271 396.734070,479.683289 
	C372.440430,479.683289 348.036865,479.683289 323.000000,479.683289 
	C323.000000,422.761353 323.000000,365.681641 323.000000,308.121704 
z"/>
<path fill="#9BA4B5" opacity="1.000000" stroke="none" 
	d="
M176.999878,284.997650 
	C186.873779,303.261444 196.737778,321.130981 206.507675,339.051758 
	C207.328568,340.557526 207.936188,342.407227 207.938843,344.098206 
	C208.009033,388.920288 207.986969,433.742554 207.970016,478.564758 
	C207.969894,478.869995 207.822098,479.175140 207.676590,479.738403 
	C183.663605,479.738403 159.595703,479.738403 135.000000,479.738403 
	C135.000000,478.137543 135.000000,476.533264 135.000000,474.928986 
	C135.000000,400.947052 135.034027,326.965057 134.903687,252.983368 
	C134.896881,249.116364 135.835068,247.027328 139.565872,245.664444 
	C142.841171,244.467972 145.797012,242.373825 148.850922,240.602005 
	C151.238708,239.216644 152.609055,240.093201 153.820953,242.322983 
	C161.495239,256.442932 169.242294,270.523346 176.999878,284.997650 
z"/>
<path fill="#9BA4B5" opacity="1.000000" stroke="none" 
	d="
M41.000000,401.000000 
	C41.000000,368.358673 41.049343,336.217163 40.925529,304.076294 
	C40.912807,300.773071 41.812107,299.111633 44.875233,297.480927 
	C66.842636,285.786011 88.655380,273.800415 110.500946,261.877289 
	C111.446625,261.361176 112.233185,260.553558 113.649704,259.447845 
	C113.649704,333.264160 113.649704,406.380493 113.649704,479.748657 
	C89.652245,479.748657 65.593651,479.748657 41.000000,479.748657 
	C41.000000,453.662872 41.000000,427.581421 41.000000,401.000000 
z"/>
<path fill="#9BA4B5" opacity="1.000000" stroke="none" 
	d="
M271.745056,344.752686 
	C281.572632,336.162506 291.145264,327.825012 301.631287,318.691986 
	C301.631287,373.259064 301.631287,426.389618 301.631287,479.760498 
	C277.625244,479.760498 253.563721,479.760498 229.000000,479.760498 
	C229.000000,478.109222 229.000000,476.502075 229.000000,474.894958 
	C229.000000,446.578949 229.273621,418.258240 228.789856,389.950500 
	C228.681427,383.605286 231.122665,379.705902 235.419128,376.099457 
	C241.417343,371.064484 247.497971,366.125732 253.428619,361.012726 
	C259.520966,355.760315 265.475372,350.347839 271.745056,344.752686 
z"/>
</svg>